<svg width="200" height="200" viewBox="0 0 200 200" fill="none" xmlns="http://www.w3.org/2000/svg">
  <!-- Fondo circular con gradiente -->
  <circle cx="100" cy="100" r="95" fill="url(#grad1)"/>
  
  <!-- Gradiente -->
  <defs>
    <linearGradient id="grad1" x1="0%" y1="0%" x2="100%" y2="100%">
      <stop offset="0%" style="stop-color:#3B82F6;stop-opacity:1" />
      <stop offset="100%" style="stop-color:#06B6D4;stop-opacity:1" />
    </linearGradient>
  </defs>
  
  <!-- Letra G estilizada -->
  <path d="M100 50 C130 50 155 75 155 105 L130 105 C130 88 115 75 100 75 C85 75 70 88 70 105 C70 122 85 135 100 135 C110 135 118 130 123 122 L100 122 L100 100 L148 100 L148 105 C148 135 123 160 100 160 C77 160 52 135 52 105 C52 75 77 50 100 50 Z" fill="white"/>
  
  <!-- Icono de graduación (birrete) -->
  <g transform="translate(130, 140)">
    <path d="M0 0 L20 -5 L40 0 L20 5 Z" fill="white" opacity="0.9"/>
    <rect x="18" y="0" width="4" height="15" fill="white" opacity="0.9"/>
    <circle cx="20" cy="17" r="3" fill="white" opacity="0.9"/>
  </g>
</svg>

